<?xml version="1.0"?>
<svg xmlns="http://www.w3.org/2000/svg" width="40" height="36" viewBox="0 0 40 36" fill="none">
<path fill-rule="evenodd" clip-rule="evenodd" d="M17.5554 35.5589L1.05424 28.1473C-0.351413 27.5003 -0.351413 26.5003 1.05424 25.9121L6.79908 23.324L17.4943 28.1473C18.8999 28.7944 21.1612 28.7944 22.5057 28.1473L33.2009 23.324L38.9458 25.9121C40.3514 26.5592 40.3514 27.5591 38.9458 28.1473L22.4446 35.5589C21.1612 36.1471 18.8999 36.1471 17.5554 35.5589Z" fill="#FF6F3D"/>
<path fill-rule="evenodd" clip-rule="evenodd" d="M17.5019 26.3875L1.05103 18.9673C-0.350343 18.3196 -0.350343 17.3184 1.05103 16.7295L6.65651 14.1973L17.5019 19.0851C18.9033 19.7329 21.1577 19.7329 22.4981 19.0851L33.3435 14.1973L38.949 16.7295C40.3503 17.3773 40.3503 18.3784 38.949 18.9673L22.4981 26.3875C21.0967 27.0353 18.8423 27.0353 17.5019 26.3875Z" fill="#95C038"/>
<path fill-rule="evenodd" clip-rule="evenodd" d="M17.5019 17.3112L1.05103 9.99781C-0.350343 9.35935 -0.350343 8.37262 1.05103 7.7922L17.5019 0.47885C18.9033 -0.159617 21.1577 -0.159617 22.4981 0.47885L38.949 7.7922C40.3503 8.43067 40.3503 9.41739 38.949 9.99781L22.4981 17.3112C21.0967 17.8916 18.8423 17.8916 17.5019 17.3112Z" fill="#5DC0E8"/>
</svg>
